<!DOCTYPE svg PUBLIC "-//W3C//DTD SVG 1.1//EN" "http://www.w3.org/Graphics/SVG/1.1/DTD/svg11.dtd">
<!-- Uploaded to: SVG Repo, www.svgrepo.com, Transformed by: SVG Repo Mixer Tools -->
<svg fill="#5300b8" width="100px" height="100px" viewBox="-307.2 -307.2 2534.40 2534.40" xmlns="http://www.w3.org/2000/svg">
<g id="SVGRepo_bgCarrier" stroke-width="0" transform="translate(0,0), scale(1)">
<path transform="translate(-307.2, -307.2), scale(79.2)" d="M16,26.427480538759163C18.810783273179645,26.433509828878563,21.98509580751409,27.50552721701954,24.146440559250138,25.70854980334154C26.309733619073388,23.909952534420746,25.8206064460244,20.588088884690837,26.347357294216756,17.824518270000954C26.885147518228433,15.00303015081445,28.121484279995386,12.246011513223019,27.23309715869087,9.514568331596609C26.19276939956224,6.315967072996687,24.46823149700502,2.4038939041253085,21.15099884624162,1.8477469823143462C17.79662254603888,1.2853727835905735,15.945641176075627,5.906385263189241,12.756094418628305,7.087442664338443C9.601994928533514,8.255374295388972,5.333623272910717,6.0443919779792985,3.0785473104076537,8.539795811342836C0.8101733691925279,11.049914815106767,1.6469260976858822,15.112185085342613,2.560344268502872,18.3697739168961C3.398955862530019,21.360574680439754,5.218800047497288,24.076450460670493,7.882832576668239,25.673663438444304C10.285880030324929,27.114403570991115,13.198155416058718,26.421470422636997,16,26.427480538759163" fill="#FDE9FF" strokewidth="0"/>
</g>
<g id="SVGRepo_tracerCarrier" stroke-linecap="round" stroke-linejoin="round"/>
<g id="SVGRepo_iconCarrier"> <path d="M790.588 1468.235c-373.722 0-677.647-303.924-677.647-677.647 0-373.722 303.925-677.647 677.647-677.647 373.723 0 677.647 303.925 677.647 677.647 0 373.723-303.924 677.647-677.647 677.647Zm596.781-160.715c120.396-138.692 193.807-319.285 193.807-516.932C1581.176 354.748 1226.428 0 790.588 0S0 354.748 0 790.588s354.748 790.588 790.588 790.588c197.647 0 378.24-73.411 516.932-193.807l516.028 516.142 79.963-79.963-516.142-516.028Z" fill-rule="evenodd"/> </g>
</svg>